<svg width="94" height="94" viewBox="0 0 94 94" fill="none" xmlns="http://www.w3.org/2000/svg">
<circle cx="47" cy="47" r="47" fill="#DA1500"/>
<path d="M35.5682 24H24.7019C23.9819 24 23.3928 24.5891 23.3928 25.3092V36.1755C23.3928 36.8955 23.9819 37.4847 24.7019 37.4847H35.5682C36.2883 37.4847 36.8774 36.8955 36.8774 36.1755V25.3092C36.8774 24.5891 36.2883 24 35.5682 24ZM34.39 34.9972H26.0111V26.6184H34.39V34.9972Z" fill="white"/>
<path d="M51.9332 24H41.0669C40.3468 24 39.7577 24.5891 39.7577 25.3092V36.1755C39.7577 36.8955 40.3468 37.4847 41.0669 37.4847H51.9332C52.6532 37.4847 53.2424 36.8955 53.2424 36.1755V25.3092C53.2424 24.5891 52.6532 24 51.9332 24ZM50.7549 34.9972H42.376V26.6184H50.7549V34.9972Z" fill="white"/>
<path d="M35.5682 40.4958H24.7019C23.9819 40.4958 23.3928 41.0849 23.3928 41.805V52.6713C23.3928 53.3913 23.9819 53.9805 24.7019 53.9805H35.5682C36.2883 53.9805 36.8774 53.3913 36.8774 52.6713V41.805C36.8774 41.0849 36.2883 40.4958 35.5682 40.4958ZM34.39 51.3621H26.0111V43.1142H34.39V51.3621Z" fill="white"/>
<path d="M51.9332 40.4958H41.0669C40.3468 40.4958 39.7577 41.0849 39.7577 41.805V52.6713C39.7577 53.3913 40.3468 53.9805 41.0669 53.9805H51.9332C52.6532 53.9805 53.2424 53.3913 53.2424 52.6713V41.805C53.2424 41.0849 52.6532 40.4958 51.9332 40.4958ZM50.7549 51.3621H42.376V43.1142H50.7549V51.3621Z" fill="white"/>
<path d="M68.2981 24H57.4318C56.7117 24 56.1226 24.5891 56.1226 25.3092V36.1755C56.1226 36.8955 56.7117 37.4847 57.4318 37.4847H68.2981C69.0181 37.4847 69.6072 36.8955 69.6072 36.1755V25.3092C69.6072 24.5891 69.0181 24 68.2981 24ZM67.1198 34.9972H58.7409V26.6184H67.1198V34.9972Z" fill="white"/>
<path d="M68.2981 40.4958H57.4318C56.7117 40.4958 56.1226 41.0849 56.1226 41.805V52.6713C56.1226 53.3913 56.7117 53.9805 57.4318 53.9805H68.2981C69.0181 53.9805 69.6072 53.3913 69.6072 52.6713V41.805C69.6072 41.0849 69.0181 40.4958 68.2981 40.4958ZM67.1198 51.3621H58.7409V43.1142H67.1198V51.3621Z" fill="white"/>
<path d="M35.5682 57.5153H24.7019C23.9819 57.5153 23.3928 58.1045 23.3928 58.8245V69.6908C23.3928 70.4109 23.9819 71 24.7019 71H35.5682C36.2883 71 36.8774 70.4109 36.8774 69.6908V58.8245C36.8774 58.1045 36.2883 57.5153 35.5682 57.5153ZM34.39 68.5125H26.0111V60.1337H34.39V68.5125Z" fill="white"/>
<path d="M51.9332 57.5153H41.0669C40.3468 57.5153 39.7577 58.1045 39.7577 58.8245V69.6908C39.7577 70.4109 40.3468 71 41.0669 71H51.9332C52.6532 71 53.2424 70.4109 53.2424 69.6908V58.8245C53.2424 58.1045 52.6532 57.5153 51.9332 57.5153ZM50.7549 68.5125H42.376V60.1337H50.7549V68.5125Z" fill="white"/>
<path d="M68.2981 57.5153H57.4318C56.7117 57.5153 56.1226 58.1045 56.1226 58.8245V69.6908C56.1226 70.4109 56.7117 71 57.4318 71H68.2981C69.0181 71 69.6072 70.4109 69.6072 69.6908V58.8245C69.6072 58.1045 69.0181 57.5153 68.2981 57.5153ZM67.1198 68.5125H58.7409V60.1337H67.1198V68.5125Z" fill="white"/>
</svg>
