<svg width="94" height="94" viewBox="0 0 94 94" fill="none" xmlns="http://www.w3.org/2000/svg">
<circle cx="47" cy="47" r="47" fill="#DA1500"/>
<path d="M69.4843 33.3119C69.4762 33.2884 69.4703 33.2656 69.46 33.2428C69.4243 33.1629 69.3745 33.0901 69.3131 33.0277L61.9694 25.6839C61.9068 25.6225 61.8337 25.5727 61.7535 25.537C61.7315 25.5275 61.7102 25.5216 61.6874 25.5135C61.6246 25.4917 61.5591 25.4788 61.4928 25.4754C61.481 25.4761 61.4678 25.4688 61.4531 25.4688H40.8906C40.6959 25.4688 40.5091 25.5461 40.3713 25.6838C40.2336 25.8216 40.1562 26.0084 40.1562 26.2031V40.1562H41.625V26.9375H60.7188V33.5469C60.7188 33.7416 60.7961 33.9284 60.9338 34.0662C61.0716 34.2039 61.2584 34.2812 61.4531 34.2812H68.0625V63.6562H52.6406V65.125H68.7969C68.9916 65.125 69.1784 65.0476 69.3162 64.9099C69.4539 64.7722 69.5312 64.5854 69.5312 64.3906V33.5469C69.5312 33.5307 69.5232 33.5168 69.5217 33.5006C69.518 33.4363 69.5054 33.3727 69.4843 33.3119ZM62.1875 32.8125V27.9759L67.0241 32.8125H62.1875Z" fill="white"/>
<path d="M27.8555 69.5313H49.5195C49.9628 69.5313 50.3973 69.4078 50.7743 69.1748C51.1513 68.9418 51.4561 68.6084 51.6543 68.2119C51.8525 67.8155 51.9364 67.3717 51.8966 66.9302C51.8568 66.4888 51.6949 66.0671 51.4289 65.7125L49.7031 63.4117V55.0053C49.713 53.0749 49.1091 51.1913 47.9786 49.6264C46.8482 48.0616 45.2497 46.8965 43.4139 46.2993L45.2234 42.6877C45.2795 42.5754 45.3059 42.4506 45.3001 42.3252C45.2943 42.1999 45.2564 42.0781 45.1901 41.9715C45.1238 41.8649 45.0313 41.7771 44.9215 41.7165C44.8116 41.6558 44.688 41.6243 44.5625 41.625H32.8125C32.6873 41.625 32.5642 41.6569 32.4548 41.7178C32.3454 41.7787 32.2535 41.8666 32.1876 41.9731C32.1217 42.0796 32.0842 42.2011 32.0785 42.3262C32.0729 42.4512 32.0993 42.5757 32.1552 42.6877L33.9611 46.2993C32.1253 46.8965 30.5268 48.0616 29.3964 49.6264C28.2659 51.1913 27.662 53.0749 27.6719 55.0053V63.4117L25.9461 65.7125C25.6801 66.0671 25.5182 66.4888 25.4784 66.9302C25.4386 67.3717 25.5225 67.8155 25.7207 68.2119C25.9189 68.6084 26.2237 68.9418 26.6007 69.1748C26.9777 69.4078 27.4122 69.5313 27.8555 69.5313ZM43.3743 43.0938L41.9055 46.0313H35.4695L34.0007 43.0938H43.3743ZM27.1211 66.5938L28.9938 64.0969C29.0891 63.9698 29.1406 63.8152 29.1406 63.6563V55.0053C29.132 53.2633 29.7175 51.5704 30.8005 50.206C31.8836 48.8415 33.3994 47.887 35.0979 47.5H42.2771C43.9756 47.887 45.4914 48.8415 46.5745 50.206C47.6575 51.5704 48.243 53.2633 48.2344 55.0053V63.6563C48.2344 63.8152 48.2859 63.9698 48.3813 64.0969L50.2539 66.5938C50.3562 66.7301 50.4185 66.8923 50.4338 67.0621C50.4491 67.2319 50.4168 67.4026 50.3406 67.5551C50.2643 67.7076 50.1472 67.8358 50.0021 67.9254C49.8571 68.015 49.69 68.0625 49.5195 68.0625H27.8555C27.685 68.0625 27.5179 68.015 27.3729 67.9254C27.2278 67.8358 27.1107 67.7076 27.0344 67.5551C26.9582 67.4026 26.9259 67.2319 26.9412 67.0621C26.9565 66.8923 27.0188 66.7301 27.1211 66.5938Z" fill="white"/>
<path d="M37.5859 58.5156H39.7891C40.0812 58.5156 40.3614 58.6317 40.568 58.8383C40.7746 59.0448 40.8906 59.325 40.8906 59.6172C40.8906 59.9093 40.7746 60.1895 40.568 60.3961C40.3614 60.6027 40.0812 60.7188 39.7891 60.7188H35.75V62.1875H37.9531V63.6562H39.4219V62.1875H39.7891C40.4708 62.1875 41.1245 61.9167 41.6066 61.4347C42.0886 60.9526 42.3594 60.2989 42.3594 59.6172C42.3594 58.9355 42.0886 58.2817 41.6066 57.7997C41.1245 57.3177 40.4708 57.0469 39.7891 57.0469H37.5859C37.2938 57.0469 37.0136 56.9308 36.807 56.7242C36.6004 56.5177 36.4844 56.2375 36.4844 55.9453C36.4844 55.6532 36.6004 55.373 36.807 55.1664C37.0136 54.9598 37.2938 54.8438 37.5859 54.8438H41.625V53.375H39.4219V51.9062H37.9531V53.375H37.5859C36.9042 53.375 36.2505 53.6458 35.7685 54.1278C35.2864 54.6099 35.0156 55.2636 35.0156 55.9453C35.0156 56.627 35.2864 57.2808 35.7685 57.7628C36.2505 58.2448 36.9042 58.5156 37.5859 58.5156Z" fill="white"/>
<path d="M54.1094 30.6094C52.8386 30.6067 51.6026 30.1947 50.5844 29.4344L49.4094 28.5531C49.2823 28.4578 49.1276 28.4062 48.9688 28.4062C48.8099 28.4062 48.6552 28.4578 48.5281 28.5531L47.3531 29.4344C46.3349 30.1947 45.0989 30.6067 43.8281 30.6094C43.6334 30.6094 43.4466 30.6867 43.3088 30.8245C43.1711 30.9622 43.0938 31.149 43.0938 31.3438V35.396C43.0945 36.3026 43.3343 37.1929 43.7891 37.9771C44.2438 38.7613 44.8974 39.4116 45.6839 39.8625L48.6016 41.5281C48.7125 41.5914 48.838 41.6248 48.9658 41.6248C49.0936 41.6248 49.2191 41.5914 49.3301 41.5281L52.2536 39.8625C53.0401 39.4116 53.6937 38.7613 54.1484 37.9771C54.6032 37.1929 54.843 36.3026 54.8438 35.396V31.3438C54.8438 31.149 54.7664 30.9622 54.6287 30.8245C54.4909 30.6867 54.3041 30.6094 54.1094 30.6094ZM53.375 35.396C53.3742 36.0432 53.2028 36.6786 52.878 37.2383C52.5532 37.7981 52.0866 38.2622 51.5251 38.584L48.9688 40.0446L46.4124 38.584C45.8509 38.2622 45.3843 37.7981 45.0595 37.2383C44.7347 36.6786 44.5633 36.0432 44.5625 35.396V32.0407C45.8933 31.9042 47.1623 31.4095 48.2344 30.6094L48.9688 30.0586L49.7031 30.6094C50.7752 31.4095 52.0442 31.9042 53.375 32.0407V35.396Z" fill="white"/>
<path d="M49.7031 32.0781H48.2344V33.5469H49.7031V32.0781Z" fill="white"/>
<path d="M49.7031 36.4844H48.2344V37.9531H49.7031V36.4844Z" fill="white"/>
<path d="M47.5 34.2203H46.0312V35.689H47.5V34.2203Z" fill="white"/>
<path d="M51.9062 34.2812H50.4375V35.75H51.9062V34.2812Z" fill="white"/>
<path d="M65.125 43.8281H46.7656V45.2969H65.125V43.8281Z" fill="white"/>
<path d="M57.0469 47.5H49.7031V48.9688H57.0469V47.5Z" fill="white"/>
<path d="M65.125 47.5H58.5156V48.9688H65.125V47.5Z" fill="white"/>
<path d="M65.125 51.1719H51.9062V52.6406H65.125V51.1719Z" fill="white"/>
<path d="M59.9844 54.8438H51.9062V56.3125H59.9844V54.8438Z" fill="white"/>
<path d="M65.125 54.8438H61.4531V56.3125H65.125V54.8438Z" fill="white"/>
<path d="M65.125 58.5156H51.9062V59.9844H65.125V58.5156Z" fill="white"/>
<path d="M65.125 40.1562H57.7812V41.625H65.125V40.1562Z" fill="white"/>
<path d="M65.125 36.4844H57.7812V37.9531H65.125V36.4844Z" fill="white"/>
</svg>
