<svg width="94" height="94" viewBox="0 0 94 94" fill="none" xmlns="http://www.w3.org/2000/svg">
<circle cx="47" cy="47" r="47" fill="#DA1500"/>
<g clip-path="url(#clip0)">
<path d="M56.3519 66.4698H50.9015C50.7699 65.8191 50.4553 65.2345 50.0145 64.7706L48.1785 54.0601C48.1218 53.7295 47.8353 53.488 47.4999 53.488C47.1646 53.488 46.878 53.7296 46.8214 54.0601L44.9853 64.7706C44.5446 65.2345 44.23 65.8191 44.0984 66.4698H38.6479C38.2677 66.4698 37.9595 66.778 37.9595 67.1583C37.9595 67.5386 38.2677 67.8468 38.6479 67.8468H44.0982C44.4184 69.4318 45.8218 70.629 47.4998 70.629C49.1779 70.629 50.5813 69.4318 50.9015 67.8468H56.3517C56.7319 67.8468 57.0402 67.5386 57.0402 67.1583C57.0402 66.778 56.7321 66.4698 56.3519 66.4698ZM47.5 58.2514L48.4551 63.823C48.1514 63.7359 47.8312 63.6883 47.5 63.6883C47.1688 63.6883 46.8486 63.7359 46.545 63.823L47.5 58.2514ZM47.5 69.2521C46.3457 69.2521 45.4066 68.313 45.4066 67.1586C45.4066 66.0043 46.3457 65.0653 47.5 65.0653C48.6544 65.0653 49.5934 66.0044 49.5934 67.1587C49.5934 68.3131 48.6544 69.2521 47.5 69.2521Z" fill="white"/>
<path d="M64.117 50.5414C62.4802 48.9046 60.6441 47.5401 58.6642 46.4683C58.5463 43.6419 57.3821 41.0023 55.3618 39.0021C54.0515 37.705 52.4756 36.7706 50.7581 36.2495C52.6301 35.1346 53.8875 33.091 53.8875 30.7584C53.8875 27.2364 51.0221 24.3709 47.5 24.3709C43.9779 24.3709 41.1125 27.2364 41.1125 30.7584C41.1125 33.091 42.3699 35.1346 44.2419 36.2495C42.5244 36.7706 40.9485 37.705 39.6382 39.0021C37.618 41.0023 36.4537 43.642 36.3358 46.4683C34.3559 47.5401 32.5198 48.9046 30.883 50.5414C26.4445 54.9799 24 60.8813 24 67.1583C24 67.5386 24.3083 67.8467 24.6885 67.8467H35.4287C35.8089 67.8467 36.1172 67.5386 36.1172 67.1583C36.1172 66.778 35.8089 66.4698 35.4287 66.4698H31.6985C32.0604 58.0664 39.0091 51.3413 47.5 51.3413C55.9909 51.3413 62.9396 58.0665 63.3015 66.4699H59.5713C59.1911 66.4699 58.8828 66.778 58.8828 67.1584C58.8828 67.5387 59.1911 67.8468 59.5713 67.8468H70.3115C70.6917 67.8468 71 67.5387 71 67.1584C71 60.8813 68.5555 54.9799 64.117 50.5414ZM57.2246 45.7529C54.9002 44.6956 52.4069 44.023 49.8232 43.7711L49.094 39.7815L50.0114 37.4754C53.8174 38.4924 56.7354 41.7597 57.2246 45.7529ZM47.5 37.1458C47.8834 37.1458 48.2617 37.169 48.6342 37.2124L47.9142 39.0222H47.0858L46.3659 37.2124C46.7383 37.169 47.1166 37.1458 47.5 37.1458ZM47.1928 40.3991H47.8072L48.4063 43.6771C48.1051 43.6657 47.8032 43.6583 47.5001 43.6583C47.197 43.6583 46.8951 43.6657 46.5939 43.6771L47.1928 40.3991ZM42.4895 30.7584C42.4895 27.9955 44.7372 25.7479 47.5 25.7479C50.2628 25.7479 52.5105 27.9955 52.5105 30.7584C52.5105 33.5212 50.2628 35.7689 47.5 35.7689C44.7372 35.7689 42.4895 33.5212 42.4895 30.7584ZM44.9885 37.4754L45.9059 39.7815L45.1767 43.7711C42.593 44.023 40.0997 44.6956 37.7753 45.7529C38.2646 41.7597 41.1826 38.4924 44.9885 37.4754ZM28.5436 66.4698C28.7127 61.758 30.6079 57.4793 33.6152 54.2475L34.871 55.5034C32.1844 58.4122 30.4878 62.2476 30.3206 66.4698H28.5436ZM59.1553 54.5297C56.2463 51.843 52.4109 50.1465 48.1885 49.9793V48.2023C52.9003 48.3713 57.1792 50.2665 60.4111 53.2739L59.1553 54.5297ZM46.8115 49.9793C42.5891 50.1465 38.7537 51.8431 35.8447 54.5297L34.5889 53.2738C37.8208 50.2664 42.0997 48.3712 46.8115 48.2022V49.9793ZM60.129 55.5034L61.3848 54.2475C64.3921 57.4793 66.2873 61.7581 66.4564 66.4698H64.6794C64.5122 62.2476 62.8156 58.4122 60.129 55.5034ZM67.8343 66.4698C67.4697 55.5681 58.4888 46.8115 47.5 46.8115C36.5112 46.8115 27.5303 55.5681 27.1657 66.4698H25.3875C25.7521 54.5881 35.5314 45.0352 47.5 45.0352C59.4686 45.0352 69.2479 54.588 69.6125 66.4698H67.8343Z" fill="white"/>
</g>
<defs>
<clipPath id="clip0">
<rect width="47" height="47" fill="white" transform="translate(24 24)"/>
</clipPath>
</defs>
</svg>
