<svg width="94" height="94" viewBox="0 0 94 94" fill="none" xmlns="http://www.w3.org/2000/svg">
<circle cx="47" cy="47" r="47" fill="#DA1500"/>
<path d="M66.5754 44.3092L65.1066 37.7917C65.07 37.6291 64.9792 37.4838 64.849 37.3797C64.7189 37.2756 64.5573 37.2188 64.3906 37.2188H58.5156V26.2031C58.5156 26.0084 58.4383 25.8216 58.3005 25.6838C58.1628 25.5461 57.976 25.4688 57.7812 25.4688H37.2188C37.024 25.4688 36.8372 25.5461 36.6995 25.6838C36.5617 25.8216 36.4844 26.0084 36.4844 26.2031V37.2188H30.6094C30.4427 37.2188 30.2811 37.2756 30.151 37.3797C30.0208 37.4838 29.93 37.6291 29.8934 37.7917L28.4246 44.3092C28.4125 44.3622 28.4063 44.4164 28.4062 44.4707V65.8594C28.4062 66.0541 28.4836 66.2409 28.6213 66.3787C28.7591 66.5164 28.9459 66.5938 29.1406 66.5938H29.875V68.7969C29.875 68.9916 29.9524 69.1784 30.0901 69.3162C30.2278 69.4539 30.4146 69.5312 30.6094 69.5312H64.3906C64.5854 69.5312 64.7722 69.4539 64.9099 69.3162C65.0476 69.1784 65.125 68.9916 65.125 68.7969V66.5938H65.8594C66.0541 66.5938 66.2409 66.5164 66.3787 66.3787C66.5164 66.2409 66.5938 66.0541 66.5938 65.8594V44.4707C66.5937 44.4164 66.5875 44.3622 66.5754 44.3092ZM37.9531 26.9375H57.0469V37.2188H37.9531V26.9375ZM63.6562 68.0625H31.3438V66.5938H63.6562V68.0625ZM65.125 65.125H29.875V44.5524L31.1969 38.6875H63.8031L65.125 44.5524V65.125Z" fill="white"/>
<path d="M47.5 40.1562C45.1761 40.1562 42.9043 40.8454 40.9721 42.1365C39.0398 43.4276 37.5338 45.2627 36.6444 47.4097C35.7551 49.5568 35.5224 51.9193 35.9758 54.1986C36.4292 56.4778 37.5482 58.5715 39.1915 60.2148C40.8348 61.858 42.9284 62.9771 45.2077 63.4305C47.487 63.8839 49.8495 63.6512 51.9965 62.7618C54.1436 61.8725 55.9787 60.3665 57.2698 58.4342C58.5609 56.5019 59.25 54.2302 59.25 51.9062C59.2465 48.791 58.0074 45.8044 55.8046 43.6016C53.6018 41.3988 50.6152 40.1597 47.5 40.1562ZM53.2617 60.4171L52.5422 59.171L51.2703 59.9053L51.9909 61.1538C50.8149 61.7272 49.5395 62.0692 48.2344 62.161V60.7187H46.7656V62.161C45.4604 62.0691 44.1851 61.727 43.0091 61.1534L43.7297 59.905L42.4578 59.1706L41.7383 60.4167C40.6567 59.682 39.7239 58.7492 38.9891 57.6676L40.2353 56.9481L39.5009 55.6762L38.2525 56.3968C37.6791 55.2209 37.3371 53.9457 37.2453 52.6406H38.6875V51.1719H37.2453C37.3372 49.8667 37.6793 48.5914 38.2528 47.4154L39.5013 48.136L40.2357 46.864L38.9895 46.1445C39.7243 45.0629 40.6571 44.1302 41.7386 43.3954L42.4582 44.6415L43.7301 43.9072L43.0095 42.6587C44.1854 42.0853 45.4606 41.7434 46.7656 41.6515V43.0937H48.2344V41.6515C49.5396 41.7434 50.8149 42.0855 51.9909 42.6591L51.2703 43.9075L52.5422 44.6419L53.2617 43.3958C54.3433 44.1305 55.2761 45.0633 56.0109 46.1449L54.7647 46.8644L55.4991 48.1363L56.7475 47.4157C57.321 48.5916 57.6629 49.8668 57.7547 51.1719H56.3125V52.6406H57.7547C57.6628 53.9458 57.3208 55.2211 56.7472 56.3971L55.4987 55.6765L54.7644 56.9485L56.0105 57.668C55.2758 58.7495 54.3432 59.6823 53.2617 60.4171Z" fill="white"/>
<path d="M46.7656 51.4932L41.9872 54.3021L42.7315 55.5682L47.8721 52.5463C47.9824 52.4815 48.0739 52.3889 48.1374 52.2778C48.201 52.1667 48.2344 52.0409 48.2343 51.913V44.5625H46.7656V51.4932Z" fill="white"/>
<path d="M36.4844 42.3594C36.4844 41.9236 36.3552 41.4977 36.1131 41.1354C35.871 40.7731 35.5269 40.4907 35.1243 40.324C34.7218 40.1572 34.2788 40.1136 33.8514 40.1986C33.4241 40.2836 33.0315 40.4934 32.7234 40.8015C32.4153 41.1096 32.2055 41.5022 32.1205 41.9296C32.0355 42.3569 32.0791 42.7999 32.2458 43.2025C32.4126 43.605 32.695 43.9491 33.0573 44.1912C33.4196 44.4333 33.8455 44.5625 34.2813 44.5625C34.8654 44.5618 35.4253 44.3295 35.8384 43.9165C36.2514 43.5035 36.4837 42.9435 36.4844 42.3594ZM34.2813 43.0938C34.136 43.0938 33.994 43.0507 33.8733 42.97C33.7525 42.8893 33.6584 42.7746 33.6028 42.6404C33.5472 42.5062 33.5327 42.3586 33.561 42.2161C33.5893 42.0737 33.6593 41.9428 33.762 41.8401C33.8647 41.7374 33.9955 41.6674 34.138 41.6391C34.2804 41.6108 34.4281 41.6253 34.5623 41.6809C34.6965 41.7365 34.8112 41.8306 34.8919 41.9514C34.9726 42.0721 35.0156 42.2141 35.0156 42.3594C35.0154 42.5541 34.938 42.7407 34.8003 42.8784C34.6626 43.0161 34.476 43.0935 34.2813 43.0938Z" fill="white"/>
<path d="M40.8906 31.3438H43.8281V32.8125H40.8906V31.3438Z" fill="white"/>
<path d="M40.8906 34.2812H43.8281V35.75H40.8906V34.2812Z" fill="white"/>
<path d="M46.0312 31.3438H54.1094V32.8125H46.0312V31.3438Z" fill="white"/>
<path d="M40.8906 28.4062H43.8281V29.875H40.8906V28.4062Z" fill="white"/>
<path d="M46.0312 28.4062H54.1094V29.875H46.0312V28.4062Z" fill="white"/>
<path d="M46.0312 34.2812H54.1094V35.75H46.0312V34.2812Z" fill="white"/>
</svg>
