<svg width="94" height="94" viewBox="0 0 94 94" fill="none" xmlns="http://www.w3.org/2000/svg">
<circle cx="47" cy="47" r="47" fill="#DA1500"/>
<path d="M66.603 46.5821H59.8089V24.918C59.8089 24.5468 59.5852 24.212 59.2422 24.0699C58.8991 23.9277 58.5043 24.0065 58.2418 24.2689L55.6413 26.8693L53.041 24.2689C52.6825 23.9105 52.1013 23.9105 51.7427 24.2689L49.1423 26.8694L46.5421 24.2689C46.1837 23.9105 45.6024 23.9105 45.2438 24.2689L42.6434 26.8694L40.0429 24.2689C39.6844 23.9105 39.1032 23.9105 38.7447 24.2689L36.1443 26.8694L33.5441 24.2689C33.1856 23.9105 32.6043 23.9105 32.2458 24.2689L29.6454 26.8694L27.045 24.2689C26.6888 23.9127 26.1126 23.9108 25.7532 24.2639C25.5644 24.4494 25.4729 24.6966 25.4793 24.9422V66.2267C25.4793 68.8587 27.6205 71 30.2525 71H62.7464C62.7466 71 62.7467 71 62.7468 71C62.7471 71 62.7474 71 62.7477 71C65.3797 71 67.5209 68.8587 67.5209 66.2267V47.5C67.5209 46.993 67.11 46.5821 66.603 46.5821ZM30.2525 69.164C28.6327 69.164 27.3151 67.8463 27.3151 66.2266V27.1354L28.9963 28.8166C29.3547 29.175 29.936 29.175 30.2945 28.8166L32.895 26.2161L35.4954 28.8166C35.8539 29.175 36.4351 29.175 36.7937 28.8166L39.3941 26.2161L41.9946 28.8166C42.3531 29.175 42.9343 29.175 43.2928 28.8166L45.8932 26.2161L48.4936 28.8166C48.8521 29.175 49.4334 29.175 49.7919 28.8166L52.3923 26.2161L54.9928 28.8166C55.3513 29.175 55.9326 29.175 56.291 28.8166L57.9735 27.1341V47.5C57.9735 47.5083 57.9745 47.5165 57.9748 47.5249V66.2266C57.9748 67.3339 58.3548 68.3534 58.9898 69.164H30.2525ZM65.685 66.2266C65.685 67.8463 64.3672 69.164 62.7476 69.164C61.1279 69.164 59.8102 67.8463 59.8102 66.2266V48.4179H65.685V66.2266Z" fill="white"/>
<path d="M42.6441 38.5824C41.733 38.5824 40.9918 37.9477 40.9918 37.1677C40.9918 36.3876 41.7331 35.7529 42.6441 35.7529C43.5552 35.7529 44.2963 36.3876 44.2963 37.1677C44.2963 37.6747 44.7073 38.0856 45.2143 38.0856C45.7213 38.0856 46.1323 37.6747 46.1323 37.1677C46.1323 35.6713 45.0413 34.4087 43.562 34.0322V33.4103C43.562 32.9033 43.1511 32.4924 42.6441 32.4924C42.1371 32.4924 41.7261 32.9033 41.7261 33.4103V34.0322C40.2467 34.4087 39.1559 35.6714 39.1559 37.1677C39.1559 38.96 40.7207 40.4182 42.6441 40.4182C43.5552 40.4182 44.2963 41.0529 44.2963 41.833C44.2963 42.6131 43.5552 43.2477 42.6441 43.2477C41.733 43.2477 40.9918 42.613 40.9918 41.833C40.9918 41.326 40.5808 40.915 40.0739 40.915C39.5669 40.915 39.1559 41.326 39.1559 41.833C39.1559 43.3294 40.2468 44.5919 41.7261 44.9685V45.7175C41.7261 46.2245 42.1371 46.6355 42.6441 46.6355C43.1511 46.6355 43.562 46.2245 43.562 45.7175V44.9685C45.0414 44.5919 46.1323 43.3294 46.1323 41.833C46.1323 40.0406 44.5674 38.5824 42.6441 38.5824Z" fill="white"/>
<path d="M51.8665 38.5825H50.0774C49.5704 38.5825 49.1594 38.9935 49.1594 39.5005C49.1594 40.0075 49.5704 40.4185 50.0774 40.4185H51.8665C52.3735 40.4185 52.7845 40.0075 52.7845 39.5005C52.7845 38.9935 52.3735 38.5825 51.8665 38.5825Z" fill="white"/>
<path d="M35.2108 38.5825H33.4217C32.9147 38.5825 32.5037 38.9935 32.5037 39.5005C32.5037 40.0075 32.9147 40.4185 33.4217 40.4185H35.2108C35.7178 40.4185 36.1288 40.0075 36.1288 39.5005C36.1288 38.9935 35.7178 38.5825 35.2108 38.5825Z" fill="white"/>
<path d="M52.3309 48.7858H37.7882C37.2812 48.7858 36.8702 49.1967 36.8702 49.7037C36.8702 50.2107 37.2812 50.6217 37.7882 50.6217H52.3309C52.8379 50.6217 53.2489 50.2107 53.2489 49.7037C53.2488 49.1967 52.8379 48.7858 52.3309 48.7858Z" fill="white"/>
<path d="M33.606 49.0547C33.4353 48.884 33.1985 48.7858 32.957 48.7858C32.7156 48.7858 32.4788 48.884 32.308 49.0547C32.1373 49.2255 32.0391 49.4623 32.0391 49.7037C32.0391 49.9452 32.1373 50.182 32.308 50.3527C32.4788 50.5235 32.7156 50.6217 32.957 50.6217C33.1985 50.6217 33.4353 50.5235 33.606 50.3527C33.7768 50.182 33.875 49.9452 33.875 49.7037C33.875 49.4623 33.7768 49.2255 33.606 49.0547Z" fill="white"/>
<path d="M52.3309 54.8442H37.7882C37.2812 54.8442 36.8702 55.2552 36.8702 55.7622C36.8702 56.2692 37.2812 56.6802 37.7882 56.6802H52.3309C52.8379 56.6802 53.2489 56.2692 53.2489 55.7622C53.2488 55.2552 52.8379 54.8442 52.3309 54.8442Z" fill="white"/>
<path d="M33.606 55.1132C33.4353 54.9425 33.1985 54.8442 32.957 54.8442C32.7156 54.8442 32.4788 54.9425 32.308 55.1132C32.1373 55.2839 32.0391 55.5208 32.0391 55.7622C32.0391 56.0036 32.1373 56.2405 32.308 56.4112C32.4788 56.582 32.7156 56.6802 32.957 56.6802C33.1985 56.6802 33.4353 56.582 33.606 56.4112C33.7768 56.2405 33.875 56.0036 33.875 55.7622C33.875 55.5208 33.7768 55.2839 33.606 55.1132Z" fill="white"/>
<path d="M52.3309 60.9026H37.7882C37.2812 60.9026 36.8702 61.3136 36.8702 61.8206C36.8702 62.3276 37.2812 62.7385 37.7882 62.7385H52.3309C52.8379 62.7385 53.2489 62.3276 53.2489 61.8206C53.2489 61.3136 52.8379 60.9026 52.3309 60.9026Z" fill="white"/>
<path d="M33.606 61.1716C33.4353 61.0008 33.1985 60.9026 32.957 60.9026C32.7156 60.9026 32.4788 61.0008 32.308 61.1716C32.1373 61.3423 32.0391 61.5791 32.0391 61.8206C32.0391 62.062 32.1373 62.2988 32.308 62.4696C32.4788 62.6403 32.7156 62.7385 32.957 62.7385C33.1985 62.7385 33.4353 62.6403 33.606 62.4696C33.7768 62.2988 33.875 62.062 33.875 61.8206C33.875 61.5791 33.7768 61.3423 33.606 61.1716Z" fill="white"/>
</svg>
