<svg width="94" height="94" viewBox="0 0 94 94" fill="none" xmlns="http://www.w3.org/2000/svg">
<circle cx="47" cy="47" r="47" fill="#DA1500"/>
<path d="M70.2301 64.1626L61.0931 55.0257C60.7346 54.6672 60.1535 54.6672 59.7949 55.0257L59.3925 55.428L56.8574 52.8929C58.3366 50.8674 59.395 48.5467 59.9344 46.0866C60.0431 45.5914 59.7297 45.1019 59.2344 44.9933C58.7389 44.8851 58.2496 45.1981 58.1411 45.6933C56.5117 53.1236 49.7992 58.5165 42.1802 58.5165C33.1703 58.5165 25.8399 51.1862 25.8399 42.1761C25.8399 33.1661 33.1701 25.8359 42.1801 25.8359C50.0192 25.8359 56.7702 31.4159 58.2321 39.1038C58.3268 39.6018 58.8072 39.9289 59.3054 39.8341C59.8035 39.7394 60.1304 39.2588 60.0357 38.7608C58.4092 30.2079 50.8997 24 42.1801 24C32.1577 24 24.0039 32.1538 24.0039 42.1762C24.0039 52.1987 32.1577 60.3525 42.1801 60.3525C46.0296 60.3525 49.7969 59.1178 52.8923 56.8601L55.4264 59.3942L55.0241 59.7966C54.6656 60.155 54.6656 60.7363 55.0241 61.0948L64.161 70.2318C64.6732 70.7439 65.346 71 66.0189 71C66.6916 71 67.3643 70.7439 67.8766 70.2318L70.2301 67.8783C71.2543 66.8539 71.2543 65.1871 70.2301 64.1626ZM54.326 55.6973C54.8073 55.2642 55.264 54.8066 55.6947 54.3269L58.0942 56.7265L56.7247 58.096L54.326 55.6973ZM68.9317 66.5801L66.5782 68.9336C66.2696 69.2422 65.7676 69.242 65.4592 68.9336L56.9715 60.4458L60.444 56.9733L68.9317 65.4609C69.2402 65.7695 69.2402 66.2715 68.9317 66.5801Z" fill="white"/>
<path d="M37.0283 37.2191H33.1246C32.6177 37.2191 32.2067 37.6301 32.2067 38.1371C32.2067 38.6441 32.6177 39.0551 33.1246 39.0551H34.1585V43.9383C34.1585 44.5083 33.6947 44.9721 33.1246 44.9721C32.5546 44.9721 32.0908 44.5083 32.0908 43.9383C32.0908 43.4313 31.6798 43.0203 31.1729 43.0203C30.6659 43.0203 30.2549 43.4313 30.2549 43.9383C30.2549 45.5207 31.5422 46.8081 33.1247 46.8081C34.7072 46.8081 35.9946 45.5208 35.9946 43.9383V39.0551H37.0284C37.5353 39.0551 37.9464 38.6441 37.9464 38.1371C37.9464 37.6301 37.5353 37.2191 37.0283 37.2191Z" fill="white"/>
<path d="M42.4116 37.2191C39.7679 37.2191 37.6172 39.3699 37.6172 42.0136C37.6172 44.6572 39.7681 46.8081 42.4117 46.8081C45.0554 46.8081 47.2063 44.6572 47.2063 42.0136C47.2063 39.3699 45.0554 37.2191 42.4116 37.2191ZM42.4116 44.9722C40.7803 44.9722 39.453 43.645 39.453 42.0136C39.453 40.3823 40.7802 39.0551 42.4116 39.0551C44.0431 39.0551 45.3703 40.3823 45.3703 42.0136C45.3703 43.6449 44.043 44.9722 42.4116 44.9722Z" fill="white"/>
<path d="M54.1031 40.1566C54.1032 38.5369 52.7854 37.219 51.1656 37.219H49.2815C48.7746 37.219 48.3635 37.63 48.3635 38.137V42.1761V46.2153C48.3635 46.7223 48.7746 47.1333 49.2815 47.1333H51.1655C52.7853 47.1333 54.1031 45.8155 54.1031 44.1957C54.1031 43.4138 53.7955 42.7031 53.2958 42.1761C53.7955 41.6493 54.1031 40.9385 54.1031 40.1566ZM51.1656 45.2974H50.1996V43.0942H51.1655C51.773 43.0942 52.2671 43.5884 52.2671 44.1958C52.2672 44.8033 51.773 45.2974 51.1656 45.2974ZM51.1655 41.2583H50.1996V39.0551H51.1655C51.773 39.0551 52.2671 39.5492 52.2671 40.1566C52.2671 40.764 51.773 41.2583 51.1655 41.2583Z" fill="white"/>
<path d="M59.4374 41.2582C58.9305 41.2582 58.5195 41.6692 58.5195 42.1762L58.5193 42.2415C58.5174 42.7485 58.9267 43.1611 59.4337 43.1631C59.435 43.1631 59.4361 43.1631 59.4374 43.1631C59.9426 43.1631 60.3533 42.7544 60.3552 42.2487L60.3554 42.1761C60.3554 41.6692 59.9443 41.2582 59.4374 41.2582Z" fill="white"/>
<path d="M51.7782 32.577C46.4851 27.284 37.8727 27.284 32.5796 32.577C32.2212 32.9354 32.2212 33.5167 32.5796 33.8751C32.9381 34.2337 33.5192 34.2337 33.8779 33.8751C38.4551 29.2981 45.9027 29.2981 50.48 33.8751C50.6593 34.0544 50.8942 34.144 51.1291 34.144C51.3641 34.144 51.5989 34.0543 51.7782 33.8751C52.1367 33.5168 52.1367 32.9354 51.7782 32.577Z" fill="white"/>
<path d="M33.8964 50.4955L33.8783 50.4773C33.5195 50.1188 32.9384 50.1188 32.5799 50.4773C32.2214 50.8357 32.2214 51.417 32.5799 51.7755C32.5807 51.7763 32.5876 51.7832 32.5883 51.7839L32.5926 51.788C32.7721 51.9686 33.0081 52.059 33.2443 52.059C33.478 52.059 33.7119 51.9703 33.8907 51.7928C34.2504 51.4359 34.2532 50.8554 33.8964 50.4955Z" fill="white"/>
<path d="M51.7782 50.4773C51.4197 50.1189 50.8387 50.1188 50.4799 50.4773C46.744 54.2132 40.9358 54.9927 36.3559 52.3733C35.9157 52.1216 35.355 52.2743 35.1032 52.7144C34.8515 53.1545 35.0043 53.7153 35.4443 53.967C37.5398 55.1654 39.8571 55.7487 42.1606 55.7487C45.6802 55.7487 49.167 54.3866 51.7783 51.7755C52.1368 51.4172 52.1368 50.8358 51.7782 50.4773Z" fill="white"/>
</svg>
