<svg width="94" height="94" viewBox="0 0 94 94" fill="none" xmlns="http://www.w3.org/2000/svg">
<circle cx="47" cy="47" r="47" fill="#DA1500"/>
<path d="M67.9677 31.5806H60.3871V24H24V64.9355C24 68.2794 26.7206 71 30.0645 71H64.9355C68.2794 71 71 68.2794 71 64.9355V34.6129C71 32.9406 69.6401 31.5806 67.9677 31.5806ZM65.3571 33.0968C65.0961 33.5447 64.9355 34.0581 64.9355 34.6129V56.5968H60.3871V33.0968H65.3571ZM30.0645 69.4839C27.556 69.4839 25.5161 67.444 25.5161 64.9355V25.5161H58.871V64.9355C58.871 66.7451 59.6675 68.3719 60.9283 69.4839H30.0645ZM69.4839 64.9355C69.4839 67.444 67.444 69.4839 64.9355 69.4839C62.427 69.4839 60.3871 67.444 60.3871 64.9355V58.1129H66.4516V34.6129C66.4516 33.7767 67.1316 33.0968 67.9677 33.0968C68.8039 33.0968 69.4839 33.7767 69.4839 34.6129V64.9355Z" fill="white"/>
<path d="M32.3387 28.5484H33.8548V42.1935H38.4032V34.6129H39.9194V42.1935H44.4677V30.8226H45.9839V42.1935H50.5323V36.8871H52.0484V42.1935H55.8387V40.6774H53.5645V35.371H49.0161V40.6774H47.5V29.3065H42.9516V40.6774H41.4355V33.0968H36.8871V40.6774H35.371V27.0323H30.8226V40.6774H28.5484V42.1935H32.3387V28.5484Z" fill="white"/>
<path d="M27.7903 48.2581H34.6129V49.7742H27.7903V48.2581Z" fill="white"/>
<path d="M36.129 48.2581H42.9516V49.7742H36.129V48.2581Z" fill="white"/>
<path d="M27.7903 60.3871H34.6129V61.9032H27.7903V60.3871Z" fill="white"/>
<path d="M36.129 60.3871H42.9516V61.9032H36.129V60.3871Z" fill="white"/>
<path d="M27.7903 51.2903H34.6129V52.8064H27.7903V51.2903Z" fill="white"/>
<path d="M36.129 51.2903H42.9516V52.8064H36.129V51.2903Z" fill="white"/>
<path d="M27.7903 45.2258H42.9516V46.7419H27.7903V45.2258Z" fill="white"/>
<path d="M27.7903 54.3226H42.9516V55.8387H27.7903V54.3226Z" fill="white"/>
<path d="M44.4677 48.2581H49.7742V49.7742H44.4677V48.2581Z" fill="white"/>
<path d="M51.2903 48.2581H56.5968V49.7742H51.2903V48.2581Z" fill="white"/>
<path d="M44.4677 45.2258H56.5968V46.7419H44.4677V45.2258Z" fill="white"/>
<path d="M44.4677 51.2903H56.5968V52.8064H44.4677V51.2903Z" fill="white"/>
<path d="M27.7903 57.3548H42.9516V58.8709H27.7903V57.3548Z" fill="white"/>
<path d="M27.7903 63.4193H42.9516V64.9355H27.7903V63.4193Z" fill="white"/>
<path d="M51.6693 56.5968H51.2903V55.0807H49.7742V56.5968H49.3952C47.932 56.5968 46.7419 57.7868 46.7419 59.25C46.7419 60.7132 47.932 61.9032 49.3952 61.9032H51.6693C52.2964 61.9032 52.8064 62.4133 52.8064 63.0403C52.8064 63.6674 52.2964 64.1774 51.6693 64.1774H49.3952C48.7681 64.1774 48.2581 63.6674 48.2581 63.0403V62.6613H46.7419V63.0403C46.7419 64.5035 47.932 65.6936 49.3952 65.6936H49.7742V67.2097H51.2903V65.6936H51.6693C53.1325 65.6936 54.3226 64.5035 54.3226 63.0403C54.3226 61.5771 53.1325 60.3871 51.6693 60.3871H49.3952C48.7681 60.3871 48.2581 59.877 48.2581 59.25C48.2581 58.623 48.7681 58.1129 49.3952 58.1129H51.6693C52.2964 58.1129 52.8064 58.623 52.8064 59.25V59.629H54.3226V59.25C54.3226 57.7868 53.1325 56.5968 51.6693 56.5968Z" fill="white"/>
</svg>
