<svg width="94" height="94" viewBox="0 0 94 94" fill="none" xmlns="http://www.w3.org/2000/svg">
<circle cx="47" cy="47" r="47" fill="#DA1500"/>
<g clip-path="url(#clip0)">
<path d="M68.7633 64.0693C68.9562 63.6357 69.0644 63.1563 69.0644 62.6519V61.3614C69.0644 59.4322 67.4948 57.8627 65.5657 57.8627C63.6365 57.8627 62.0669 59.4322 62.0669 61.3614V62.6519C62.0669 63.1571 62.1754 63.6371 62.3689 64.0712C61.8467 64.4504 61.4007 64.9109 61.0493 65.4336C60.6979 64.9109 60.2519 64.4504 59.7298 64.0713C59.9233 63.6372 60.0318 63.1571 60.0318 62.6519V61.3614C60.0318 59.4322 58.4622 57.8627 56.5331 57.8627C54.6039 57.8627 53.0343 59.4322 53.0343 61.3614V62.6519C53.0343 63.1571 53.1428 63.6371 53.3362 64.0712C52.814 64.4504 52.368 64.9109 52.0166 65.4337C51.6651 64.911 51.2191 64.4505 50.697 64.0713C50.8905 63.6372 50.999 63.1571 50.999 62.6519V61.3614C50.999 59.4322 49.4294 57.8627 47.5002 57.8627C45.571 57.8627 44.0015 59.4322 44.0015 61.3614V62.6519C44.0015 63.1571 44.11 63.6371 44.3035 64.0712C43.7812 64.4503 43.3353 64.9109 42.9839 65.4336C42.6324 64.9109 42.1865 64.4504 41.6643 64.0713C41.8578 63.6372 41.9663 63.1571 41.9663 62.6519V61.3614C41.9663 59.7734 40.9025 58.43 39.4504 58.0042V55.9324H40.3519C41.8613 55.9324 43.0894 54.7043 43.0894 53.1949V46.8266C43.0894 43.5499 41.3549 40.5773 38.5291 38.9446C38.5359 38.8434 38.5406 38.7415 38.5406 38.6385V36.8189C38.5406 34.3061 36.4963 32.2618 33.9835 32.2618C31.4708 32.2618 29.4265 34.3061 29.4265 36.8189V38.6385C29.4265 38.7415 29.4311 38.8434 29.4379 38.9447C28.1619 39.6846 27.0789 40.7236 26.2852 41.9769C25.3645 43.4308 24.8778 45.1078 24.8778 46.8266V53.1949C24.8778 54.7043 26.1058 55.9324 27.6152 55.9324H28.5168V57.9857C27.0315 58.3901 25.9359 59.7499 25.9359 61.3614V62.6519C25.9359 63.1562 26.044 63.6355 26.2369 64.0691C24.8387 65.0839 24 66.6963 24 68.4587V70.0821C24 70.5891 24.4111 71.0001 24.918 71.0001H70.0819C70.5888 71.0001 70.9999 70.5891 70.9999 70.0821V68.4587C70.9999 66.6969 70.1612 65.0841 68.7633 64.0693ZM63.9028 61.3615C63.9028 60.4447 64.6487 59.6987 65.5656 59.6987C66.4824 59.6987 67.2284 60.4447 67.2284 61.3615V62.652C67.2284 63.5689 66.4824 64.3148 65.5656 64.3148C64.6487 64.3148 63.9028 63.5689 63.9028 62.652V61.3615ZM54.8701 61.3615C54.8701 60.4447 55.616 59.6987 56.5329 59.6987C57.4497 59.6987 58.1957 60.4447 58.1957 61.3615V62.652C58.1957 63.5689 57.4497 64.3148 56.5329 64.3148C55.616 64.3148 54.8701 63.5689 54.8701 62.652V61.3615ZM54.4993 65.4963C55.0728 65.9076 55.7748 66.1506 56.5329 66.1506C57.2915 66.1506 57.9939 65.9072 58.5677 65.4954C59.543 66.164 60.1314 67.2597 60.1314 68.4587V69.1641H52.9345V68.4587C52.9344 67.2793 53.5353 66.1645 54.4993 65.4963ZM45.8371 61.3615C45.8371 60.4447 46.583 59.6987 47.4999 59.6987C48.4169 59.6987 49.1628 60.4447 49.1628 61.3615V62.652C49.1628 63.5689 48.4169 64.3148 47.4999 64.3148C46.583 64.3148 45.8371 63.5689 45.8371 62.652V61.3615ZM45.4664 65.4964C46.04 65.9077 46.7419 66.1507 47.5 66.1507C48.2586 66.1507 48.961 65.9073 49.5349 65.4955C50.5101 66.1641 51.0985 67.2599 51.0985 68.4588V69.1642H43.9017V68.4588C43.9016 67.2793 44.5025 66.1645 45.4664 65.4964ZM40.13 61.3615V62.652C40.13 63.5689 39.3841 64.3148 38.4671 64.3148C37.5503 64.3148 36.8043 63.5689 36.8043 62.652V61.3615C36.8043 60.4447 37.5503 59.6987 38.4671 59.6987C39.3841 59.6987 40.13 60.4447 40.13 61.3615ZM41.2532 53.195C41.2532 53.6922 40.8487 54.0966 40.3516 54.0966H39.4501V47.7444L41.2532 47.7445V53.195H41.2532ZM41.1956 45.9086L38.5321 45.9085C38.532 45.9085 38.532 45.9085 38.532 45.9085C38.2886 45.9085 38.0551 46.0053 37.8829 46.1774C37.7108 46.3495 37.6141 46.583 37.6141 46.8265V52.2771H34.9012V43.1027C36.2461 42.8266 37.3762 41.9556 38.0051 40.7784C39.7733 41.9532 40.9317 43.8164 41.1956 45.9086ZM31.2621 36.8191C31.2621 35.3187 32.4828 34.098 33.9832 34.098H33.9833C35.4837 34.098 36.7044 35.3187 36.7044 36.8191V38.6387C36.7044 40.1391 35.4837 41.3598 33.9832 41.3598C32.4828 41.3598 31.2621 40.1391 31.2621 38.6387V36.8191ZM29.9611 40.778C30.59 41.9555 31.7202 42.8265 33.0653 43.1027V52.2771H30.3524V46.8265C30.3524 46.583 30.2557 46.3495 30.0835 46.1774C29.9113 46.0053 29.6778 45.9085 29.4344 45.9085L26.7708 45.9086C27.0343 43.8151 28.1924 41.9526 29.9611 40.778ZM27.6149 54.0966C27.1178 54.0966 26.7133 53.6921 26.7133 53.195V47.7445L28.5165 47.7444V54.0966H27.6149ZM27.7715 61.3615C27.7715 60.4447 28.5175 59.6987 29.4344 59.6987C30.3512 59.6987 31.0972 60.4447 31.0972 61.3615V62.652C31.0972 63.5689 30.3512 64.3148 29.4344 64.3148C28.5175 64.3148 27.7715 63.5689 27.7715 62.652V61.3615ZM33.0329 69.1641H25.8359V68.4587C25.8359 67.2792 26.4368 66.1645 27.4008 65.4963C27.9744 65.9076 28.6763 66.1506 29.4344 66.1506C30.193 66.1506 30.8954 65.9072 31.4692 65.4954C32.4445 66.164 33.0329 67.2597 33.0329 68.4587V69.1641ZM33.9507 65.4337C33.5993 64.911 33.1533 64.4505 32.6312 64.0714C32.8247 63.6373 32.9332 63.1572 32.9332 62.652V61.3615C32.9332 59.7499 31.8376 58.3902 30.3524 57.9858V54.113H37.6141V57.9685C36.0958 58.3503 34.9684 59.7265 34.9684 61.3615V62.652C34.9684 63.1572 35.0769 63.6372 35.2704 64.0713C34.7481 64.4504 34.3021 64.9109 33.9507 65.4337ZM34.8688 68.4587C34.8688 67.2792 35.4696 66.1645 36.4337 65.4963C37.0072 65.9076 37.7092 66.1506 38.4672 66.1506C39.2258 66.1506 39.9283 65.9072 40.5021 65.4954C41.4773 66.164 42.0657 67.2598 42.0657 68.4587V69.1641H34.8689V68.4587H34.8688ZM69.164 69.1641H61.9672V68.4587C61.9672 67.2792 62.568 66.1645 63.5321 65.4963C64.1056 65.9076 64.8076 66.1506 65.5657 66.1506C66.3243 66.1506 67.0267 65.9072 67.6005 65.4954C68.5757 66.164 69.1641 67.2597 69.1641 68.4587V69.1641H69.164Z" fill="white"/>
<path d="M68.2461 24H47.679C46.1605 24 44.9251 25.2354 44.9251 26.7539V32.6927L42.1844 34.2751C41.8985 34.4363 41.661 34.6722 41.497 34.9575C41.2532 35.3818 41.1891 35.8756 41.3167 36.348C41.4444 36.8204 41.7483 37.2148 42.171 37.4577L44.9252 39.0479V44.9906C44.9252 46.5091 46.1606 47.7445 47.6791 47.7445H68.2462C69.7647 47.7445 71.0001 46.5091 71.0001 44.9906V26.7539C71 25.2354 69.7646 24 68.2461 24ZM69.164 44.9907C69.164 45.4968 68.7522 45.9086 68.2461 45.9086H47.679C47.1729 45.9086 46.7611 45.4968 46.7611 44.9907V38.518C46.7611 38.19 46.5861 37.887 46.3021 37.723L43.0863 35.8742C43.09 35.8721 43.0939 35.8699 43.0977 35.8677L46.3021 34.0177C46.5861 33.8537 46.7611 33.5507 46.7611 33.2227V26.7539C46.7611 26.2477 47.1729 25.8359 47.679 25.8359H68.2461C68.7522 25.8359 69.164 26.2477 69.164 26.7539V44.9907Z" fill="white"/>
<path d="M66.4101 29.4465H53.6456C53.1387 29.4465 52.7277 29.8574 52.7277 30.3644C52.7277 30.8714 53.1387 31.2824 53.6456 31.2824H66.4101C66.917 31.2824 67.328 30.8714 67.328 30.3644C67.328 29.8574 66.9171 29.4465 66.4101 29.4465Z" fill="white"/>
<path d="M66.4101 33.1183H49.5151C49.0082 33.1183 48.5972 33.5293 48.5972 34.0363C48.5972 34.5433 49.0082 34.9543 49.5151 34.9543H66.4101C66.917 34.9543 67.328 34.5433 67.328 34.0363C67.328 33.5293 66.9171 33.1183 66.4101 33.1183Z" fill="white"/>
<path d="M66.4101 36.7902H49.5151C49.0082 36.7902 48.5972 37.2012 48.5972 37.7082C48.5972 38.2152 49.0082 38.6262 49.5151 38.6262H66.4101C66.917 38.6262 67.328 38.2152 67.328 37.7082C67.328 37.2012 66.9171 36.7902 66.4101 36.7902Z" fill="white"/>
<path d="M57.9627 40.462H49.5151C49.0082 40.462 48.5972 40.873 48.5972 41.38C48.5972 41.887 49.0082 42.298 49.5151 42.298H57.9627C58.4696 42.298 58.8806 41.887 58.8806 41.38C58.8806 40.873 58.4696 40.462 57.9627 40.462Z" fill="white"/>
<path d="M49.515 31.2824C50.0219 31.2824 50.433 30.8714 50.433 30.3644C50.433 29.8574 50.0219 29.4465 49.515 29.4465H49.5144C49.0075 29.4465 48.5968 29.8574 48.5968 30.3644C48.5968 30.8714 49.008 31.2824 49.515 31.2824Z" fill="white"/>
</g>
<defs>
<clipPath id="clip0">
<rect width="47" height="47" fill="white" transform="translate(24 24)"/>
</clipPath>
</defs>
</svg>
