<svg width="94" height="94" viewBox="0 0 94 94" fill="none" xmlns="http://www.w3.org/2000/svg">
<circle cx="47" cy="47" r="47" fill="#DA1500"/>
<path d="M70.3115 23H48.877C48.4967 23 48.1885 23.3083 48.1885 23.6885V45.123C48.1885 45.5033 48.4967 45.8115 48.877 45.8115H70.3115C70.6917 45.8115 71 45.5033 71 45.123V23.6885C71 23.3083 70.6917 23 70.3115 23ZM57.5288 24.377H61.6597V30.5379L59.9021 29.6591C59.7083 29.5622 59.4801 29.5622 59.2864 29.6591L57.5288 30.5379V24.377ZM69.623 44.4346H49.5654V24.377H56.1519V31.6519C56.1519 31.8904 56.2754 32.112 56.4784 32.2375C56.6813 32.363 56.9347 32.3744 57.1482 32.2676L59.5942 31.0446L62.0403 32.2676C62.1375 32.3162 62.2429 32.3403 62.3481 32.3403C62.4741 32.3403 62.5996 32.3058 62.7101 32.2375C62.9131 32.112 63.0366 31.8904 63.0366 31.6519V24.377H69.623V44.4346Z" fill="white"/>
<path d="M46.123 23H24.6885C24.3083 23 24 23.3083 24 23.6885V45.123C24 45.5033 24.3083 45.8115 24.6885 45.8115H46.123C46.5033 45.8115 46.8115 45.5033 46.8115 45.123V23.6885C46.8115 23.3083 46.5033 23 46.123 23ZM33.3403 24.377H37.4712V30.5379L35.7136 29.6591C35.5199 29.5622 35.2917 29.5622 35.0979 29.6591L33.3403 30.5379V24.377ZM45.4346 44.4346H25.377V24.377H31.9634V31.6519C31.9634 31.8904 32.0869 32.112 32.2899 32.2375C32.4929 32.363 32.7463 32.3744 32.9597 32.2676L35.4058 31.0446L37.8518 32.2676C37.949 32.3162 38.0545 32.3403 38.1597 32.3403C38.2856 32.3403 38.4111 32.3058 38.5216 32.2375C38.7246 32.112 38.8481 31.8904 38.8481 31.6519V24.377H45.4346V44.4346Z" fill="white"/>
<path d="M70.3115 47.1885H48.877C48.4967 47.1885 48.1885 47.4967 48.1885 47.877V69.3115C48.1885 69.6917 48.4967 70 48.877 70H70.3115C70.6917 70 71 69.6917 71 69.3115V47.877C71 47.4967 70.6917 47.1885 70.3115 47.1885ZM57.5288 48.5654H61.6597V54.7264L59.9021 53.8476C59.7083 53.7507 59.4801 53.7507 59.2864 53.8476L57.5288 54.7264V48.5654ZM69.623 68.623H49.5654V48.5654H56.1519V55.8403C56.1519 56.0789 56.2754 56.3005 56.4784 56.426C56.6813 56.5515 56.9347 56.5629 57.1482 56.4561L59.5942 55.2331L62.0403 56.4561C62.1375 56.5047 62.2429 56.5288 62.3481 56.5288C62.4741 56.5288 62.5996 56.4943 62.7101 56.426C62.9131 56.3005 63.0366 56.0789 63.0366 55.8403V48.5654H69.623V68.623Z" fill="white"/>
<path d="M46.123 47.1885H32.6519C32.2716 47.1885 31.9634 47.4967 31.9634 47.877V55.8403C31.9634 56.0789 32.0869 56.3005 32.2899 56.426C32.4929 56.5515 32.7464 56.5629 32.9597 56.4561L35.4058 55.2331L37.8518 56.4561C38.0652 56.5628 38.3187 56.5514 38.5216 56.426C38.7246 56.3005 38.8481 56.0789 38.8481 55.8403V48.5654H45.4346V68.623H25.377V48.5654H29.8979C30.2782 48.5654 30.5864 48.2572 30.5864 47.877C30.5864 47.4967 30.2782 47.1885 29.8979 47.1885H24.6885C24.3083 47.1885 24 47.4967 24 47.877V69.3115C24 69.6917 24.3083 70 24.6885 70H46.123C46.5033 70 46.8115 69.6917 46.8115 69.3115V47.877C46.8115 47.4967 46.5033 47.1885 46.123 47.1885ZM37.4712 54.7264L35.7136 53.8476C35.6167 53.7991 35.5112 53.7749 35.4058 53.7749C35.3003 53.7749 35.1948 53.7991 35.0979 53.8476L33.3403 54.7264V48.5654H37.4712V54.7264Z" fill="white"/>
</svg>
