<svg width="94" height="94" viewBox="0 0 94 94" fill="none" xmlns="http://www.w3.org/2000/svg">
<circle cx="47" cy="47" r="47" fill="#DA1500"/>
<g clip-path="url(#clip0)">
<path d="M68.5802 65.5552C71.1688 61.0084 70.1156 55.2591 66.0833 51.9252V45.541H67.0625C67.6033 45.541 68.0417 45.1026 68.0417 44.5618V41.6243H69.0209C69.5617 41.623 69.999 41.1836 69.9977 40.6428C69.997 40.3237 69.8407 40.0249 69.5789 39.8423L47.0581 24.1756C46.7225 23.9427 46.2775 23.9427 45.9419 24.1756L23.4211 39.8423C22.9776 40.1518 22.8691 40.7622 23.1785 41.2056C23.3612 41.4674 23.66 41.6236 23.9792 41.6243H24.9584V44.5618C24.9584 45.1026 25.3968 45.541 25.9376 45.541H26.9168V61.2077H25.9375C25.3967 61.2077 24.9583 61.6461 24.9583 62.1869V65.3007C23.7875 65.7146 23.0035 66.82 23 68.0618V70.0201C23 70.5609 23.4384 70.9993 23.9792 70.9993H69.0209C69.5617 70.9993 70.0001 70.5609 70.0001 70.0201V68.0618C69.9971 67.0356 69.4589 66.0854 68.5802 65.5552ZM66.0833 43.5827H58.25V41.6244H66.0833V43.5827ZM64.125 45.541V50.6425C62.9046 50.0157 61.5748 49.6299 60.2083 49.5067V45.541H64.125ZM46.5 26.1731L65.8973 39.666H27.1027L46.5 26.1731ZM35.7292 61.2077H34.75V45.541H35.7292C36.27 45.541 36.7084 45.1026 36.7084 44.5618V41.6243H40.625V44.5618C40.625 45.1026 41.0634 45.541 41.6042 45.541H42.5834V61.2077H41.6042C41.0634 61.2077 40.625 61.6461 40.625 62.1869V65.1244H36.7083V62.1869C36.7083 61.6461 36.27 61.2077 35.7292 61.2077ZM42.5833 63.166H48.8794C49.0721 63.8427 49.3312 64.4986 49.6529 65.1243H42.5834V63.166H42.5833ZM44.5417 61.2077V45.541H48.4584V61.2077H44.5417ZM49.4375 43.5827H42.5833V41.6244H50.4166V43.5827H49.4375ZM50.4167 45.541H51.3959C51.9367 45.541 52.3751 45.1026 52.3751 44.5618V41.6243H56.2918V44.5618C56.2918 45.1026 56.7302 45.541 57.271 45.541H58.25V49.5067C55.0982 49.7966 52.2334 51.4582 50.4167 54.05V45.541ZM26.9167 41.6243H34.75V43.5826H26.9167V41.6243ZM32.7917 45.541V61.2077H28.875V45.541H32.7917ZM26.9167 63.166H34.75V65.1243H26.9167V63.166ZM24.9583 69.041V68.0618C24.9583 67.5211 25.3967 67.0826 25.9375 67.0826H50.9258C51.5437 67.8271 52.2582 68.4858 53.0506 69.0409H24.9583V69.041ZM68.0417 69.041H65.3979C66.1607 68.5083 66.8518 67.8798 67.4542 67.1709C67.8089 67.3256 68.0391 67.6749 68.0417 68.0619V69.041ZM59.2292 69.041C54.3622 69.041 50.4167 65.0955 50.4167 60.2285C50.4167 55.3616 54.3622 51.416 59.2292 51.416C64.0962 51.416 68.0417 55.3616 68.0417 60.2285C68.0417 65.0955 64.0962 69.041 59.2292 69.041Z" fill="white"/>
<path d="M57.8975 35.9352L47.1267 28.1019L45.9223 29.6882L54.255 35.7493H36.7083V37.7076H57.2708C57.7122 37.7291 58.1135 37.4524 58.25 37.0319C58.3827 36.6286 58.2403 36.1857 57.8975 35.9352Z" fill="white"/>
<path d="M61.1875 55.3326H60.2083V53.3743H58.25V55.3326H57.2708C56.1893 55.3326 55.3125 56.2093 55.3125 57.2909V59.2492C55.3125 60.3307 56.1893 61.2075 57.2708 61.2075H61.1875V63.1658H57.2708V62.1866H55.3125V63.1658C55.3125 64.2473 56.1893 65.1241 57.2708 65.1241H58.25V67.0824H60.2083V65.1241H61.1875C62.269 65.1241 63.1458 64.2473 63.1458 63.1658V61.2075C63.1458 60.1259 62.269 59.2492 61.1875 59.2492H57.2708V57.2909H61.1875V58.2701H63.1458V57.2909C63.1458 56.2093 62.269 55.3326 61.1875 55.3326Z" fill="white"/>
</g>
<defs>
<clipPath id="clip0">
<rect width="47" height="47" fill="white" transform="translate(23 24)"/>
</clipPath>
</defs>
</svg>
