<svg width="94" height="94" viewBox="0 0 94 94" fill="none" xmlns="http://www.w3.org/2000/svg">
<circle cx="47" cy="47" r="47" fill="#DA1500"/>
<path d="M34.9667 53.9417C32.3746 53.9417 30.2667 56.0496 30.2667 58.6417C30.2667 61.2337 32.3746 63.3417 34.9667 63.3417C37.5587 63.3417 39.6667 61.2337 39.6667 58.6417C39.6667 56.0496 37.5586 53.9417 34.9667 53.9417ZM34.9667 61.775C33.2386 61.775 31.8334 60.3697 31.8334 58.6417C31.8334 56.9136 33.2387 55.5084 34.9667 55.5084C36.6946 55.5084 38.1 56.9137 38.1 58.6417C38.1 60.3697 36.6946 61.775 34.9667 61.775Z" fill="white"/>
<path d="M61.6 53.9417C59.008 53.9417 56.9 56.0496 56.9 58.6417C56.9 61.2337 59.008 63.3417 61.6 63.3417C64.1921 63.3417 66.3 61.2337 66.3 58.6417C66.3 56.0496 64.1921 53.9417 61.6 53.9417ZM61.6 61.775C59.872 61.775 58.4667 60.3697 58.4667 58.6417C58.4667 56.9136 59.872 55.5084 61.6 55.5084C63.3281 55.5084 64.7333 56.9137 64.7333 58.6417C64.7333 60.3697 63.3281 61.775 61.6 61.775Z" fill="white"/>
<path d="M70.8755 49.6013L63.8255 38.6346C63.6813 38.4105 63.433 38.275 63.1666 38.275H54.55C54.1168 38.275 53.7667 38.6259 53.7667 39.0583V58.6416C53.7667 59.0748 54.1168 59.4249 54.55 59.4249H57.6833V57.8582H55.3333V39.8417H62.7389L69.4333 50.2553V57.8584H65.5166V59.425H70.2166C70.6498 59.425 70.9999 59.0749 70.9999 58.6417V50.025C71 49.8754 70.957 49.7273 70.8755 49.6013Z" fill="white"/>
<path d="M58.4667 48.4583V42.975H64.7334V41.4083H57.6834C57.2502 41.4083 56.9001 41.7592 56.9001 42.1916V49.2416C56.9001 49.6748 57.2502 50.0249 57.6834 50.0249H69.4334V48.4582H58.4667V48.4583Z" fill="white"/>
<path d="M54.55 32.7917H24.7833C24.3509 32.7917 24 33.1426 24 33.575V58.6417C24 59.0749 24.3509 59.425 24.7833 59.425H31.05V57.8583H25.5667V34.3583H53.7667V57.8583H38.8833V59.425H54.55C54.9832 59.425 55.3333 59.0749 55.3333 58.6417V33.575C55.3333 33.1426 54.9832 32.7917 54.55 32.7917Z" fill="white"/>
<path d="M29.4833 54.725H24.7833V56.2917H29.4833V54.725Z" fill="white"/>
<path d="M53.7667 54.725H40.45V56.2917H53.7667V54.725Z" fill="white"/>
<path d="M70.2166 54.725H67.0833V56.2917H70.2166V54.725Z" fill="white"/>
<path d="M54.55 35.925H27.1333V37.4917H54.55V35.925Z" fill="white"/>
<path d="M35.75 57.8583H34.1833V59.425H35.75V57.8583Z" fill="white"/>
<path d="M62.3834 57.8583H60.8167V59.425H62.3834V57.8583Z" fill="white"/>
<path d="M38.1 29.6583H27.1333V31.225H38.1V29.6583Z" fill="white"/>
<path d="M25.5667 29.6583H24V31.225H25.5667V29.6583Z" fill="white"/>
</svg>
