<svg width="94" height="94" viewBox="0 0 94 94" fill="none" xmlns="http://www.w3.org/2000/svg">
<circle cx="47" cy="47" r="47" fill="#DA1500"/>
<path d="M48.371 57.6863C48.224 57.3305 47.8554 57.0964 47.4706 57.1183C47.0873 57.1398 46.7502 57.4044 46.6383 57.7712C46.5279 58.1341 46.6584 58.539 46.9593 58.7699C47.2687 59.0069 47.7069 59.0223 48.0318 58.8054C48.3922 58.5644 48.5363 58.0868 48.371 57.6863Z" fill="white"/>
<path d="M48.4513 42.51H32.3901C31.8809 42.51 31.4685 42.9227 31.4685 43.4315C31.4685 43.9404 31.8809 44.3531 32.3901 44.3531H48.4516C48.9605 44.3531 49.3732 43.9404 49.3732 43.4315C49.3732 42.9227 48.9605 42.51 48.4513 42.51Z" fill="white"/>
<path d="M48.4513 47.5308H32.3901C31.8809 47.5308 31.4685 47.9436 31.4685 48.4524C31.4685 48.9612 31.8809 49.3739 32.3901 49.3739H48.4516C48.9605 49.3739 49.3732 48.9612 49.3732 48.4524C49.3732 47.9436 48.9605 47.5308 48.4513 47.5308Z" fill="white"/>
<path d="M63.5684 41.6021C63.5383 41.2266 63.283 40.9071 62.9233 40.7952L52.4237 37.5304C52.097 37.4285 51.7406 37.5167 51.4982 37.7588C51.2561 38.0008 51.1683 38.3572 51.2698 38.6843L54.5347 49.1839C54.6465 49.5436 54.966 49.7989 55.3415 49.829C55.3662 49.8308 55.3906 49.8319 55.415 49.8319C55.7628 49.8319 56.0837 49.6354 56.2401 49.3202L57.2656 47.2558L59.5609 49.5514C59.9209 49.9111 60.5043 49.9111 60.8643 49.5514L63.2909 47.1249C63.4633 46.9521 63.5605 46.7176 63.5605 46.4734C63.5605 46.2288 63.4633 45.9947 63.2909 45.8215L60.9952 43.5262L63.0596 42.5007C63.397 42.3332 63.5982 41.9775 63.5684 41.6021ZM61.3359 46.4734L60.2128 47.5965L57.6622 45.0459C57.4879 44.8716 57.2531 44.7762 57.0107 44.7762C56.9612 44.7762 56.9113 44.7802 56.8618 44.7881C56.5689 44.8361 56.3172 45.0218 56.1852 45.2876L55.6122 46.4415L53.5507 39.8113L60.1809 41.8728L59.027 42.4458C58.7613 42.5781 58.5755 42.8298 58.5275 43.1224C58.4798 43.4154 58.5755 43.713 58.7853 43.9232L61.3359 46.4734Z" fill="white"/>
<path d="M70.0784 25.1016H24.9216C24.4127 25.1016 24 25.5143 24 26.0231V61.6715C24 62.1803 24.4127 62.5931 24.9216 62.5931H41.8344V68.0969H36.7207C36.2119 68.0969 35.7991 68.5097 35.7991 69.0185C35.7991 69.5273 36.2119 69.94 36.7207 69.94H58.3188C58.8276 69.94 59.2403 69.5273 59.2403 69.0185C59.2403 68.5097 58.8276 68.0969 58.3188 68.0969H53.205V62.5931H70.0784C70.5873 62.5931 71 62.1803 71 61.6715V26.0231C71 25.5143 70.5873 25.1016 70.0784 25.1016V25.1016ZM25.8431 26.9447H69.1569V31.9795H25.8431V26.9447ZM51.3619 68.0969H43.6775V62.5927H51.3619V68.0969ZM52.2835 60.7499H25.8431V56.1755H58.303C58.8118 56.1755 59.2245 55.7632 59.2245 55.254C59.2245 54.7451 58.8118 54.3324 58.303 54.3324H25.8431V33.8226H69.1569V54.3324H65.6733C65.1644 54.3324 64.7517 54.7451 64.7517 55.254C64.7517 55.7632 65.1644 56.1755 65.6733 56.1755H69.1569V60.7499H52.2835Z" fill="white"/>
<path d="M32.5716 29.1094C32.4185 28.7423 32.0359 28.5081 31.6382 28.544C31.257 28.5787 30.9304 28.8538 30.8307 29.2231C30.7321 29.5889 30.8748 29.9916 31.1846 30.2114C31.4991 30.4344 31.9269 30.4387 32.2449 30.2196C32.5967 29.9772 32.7362 29.5039 32.5716 29.1094Z" fill="white"/>
<path d="M28.8795 29.1094C28.7296 28.7498 28.3578 28.5163 27.968 28.5432C27.5944 28.5694 27.2666 28.8229 27.1519 29.1801C27.0339 29.5455 27.1608 29.9596 27.4671 30.1934C27.7783 30.4308 28.2136 30.4444 28.5396 30.2282C28.9007 29.989 29.0462 29.5089 28.8795 29.1094Z" fill="white"/>
<path d="M36.2634 29.1094C36.1103 28.7426 35.7284 28.5081 35.3307 28.544C34.9496 28.5787 34.6229 28.8538 34.5232 29.2231C34.425 29.5881 34.567 29.9915 34.8761 30.2114C35.1913 30.4348 35.618 30.438 35.9364 30.2196C36.29 29.9776 36.4276 29.5039 36.2634 29.1094Z" fill="white"/>
<path d="M62.8387 54.9015C62.6888 54.5393 62.3133 54.3066 61.9218 54.3349C61.5338 54.3629 61.1985 54.6401 61.0974 55.0159C61.002 55.3702 61.1333 55.7625 61.4262 55.9851C61.7378 56.2222 62.1724 56.2365 62.4987 56.0203C62.8616 55.7797 63.0043 55.3024 62.8387 54.9015Z" fill="white"/>
<path d="M48.4513 37.4888H32.3901C31.8809 37.4888 31.4685 37.9015 31.4685 38.4103C31.4685 38.9195 31.8809 39.3322 32.3901 39.3322H48.4516C48.9605 39.3322 49.3732 38.9195 49.3732 38.4103C49.3732 37.9015 48.9605 37.4888 48.4513 37.4888Z" fill="white"/>
</svg>
